<svg width="425" height="117" fill="none" xmlns="http://www.w3.org/2000/svg"><path d="M54.601.175L0 79.607h26.601l-.054-16.6 28.054.003V.175z" fill="#D91C57"/><path d="M54.656 107.534L26.601 79.607v-16.53l28.055 27.86v16.597z" fill="#002F66"/><path d="M95.105 36.933v2.449c-3.328-1.887-6.65-2.83-9.963-2.83-3.557 0-6.516 1.178-8.877 3.533-2.362 2.355-3.543 5.306-3.543 8.853 0 3.547 1.168 6.494 3.502 8.842 2.335 2.349 5.509 3.524 9.522 3.524 2.898 0 5.467-.576 7.709-1.727V52.01h-5.939v-1.807h8.132v10.74c-3.314 1.58-6.642 2.369-9.983 2.369-4.362 0-8.002-1.378-10.92-4.135-2.919-2.758-4.378-6.196-4.378-10.318 0-4.096 1.432-7.505 4.297-10.23 2.865-2.722 6.465-4.084 10.8-4.084 2.951 0 6.165.797 9.64 2.389zM113.137 46.308l-1.148 1.847c-1.544-1.406-2.785-2.108-3.724-2.108-1.852 0-3.831 1.767-5.938 5.3V62.95h-1.973V44.48h1.973v4.858h.081c2.214-3.48 4.374-5.22 6.482-5.22 1.207 0 2.622.73 4.247 2.19zM124.677 38.619c0-.495.181-.923.544-1.285.362-.361.785-.542 1.268-.542.497 0 .923.18 1.278.542.356.362.534.79.534 1.285 0 .482-.178.903-.534 1.264a1.726 1.726 0 01-1.278.543c-.483 0-.906-.18-1.268-.543-.363-.36-.544-.782-.544-1.264zm-7.286 0c0-.495.177-.923.533-1.285a1.731 1.731 0 011.278-.542c.484 0 .906.18 1.268.542.362.362.543.79.543 1.285 0 .482-.181.903-.543 1.264-.362.362-.784.543-1.268.543a1.73 1.73 0 01-1.278-.543c-.356-.36-.533-.782-.533-1.264zm10.869 24.33V59.9h-.08c-.859 1.23-1.741 2.107-2.647 2.63-.906.521-2.057.782-3.452.782-1.986 0-3.631-.643-4.932-1.927-1.301-1.285-1.953-3.105-1.953-5.46V44.48h1.974v11.402c0 1.713.469 3.059 1.409 4.035.939.977 2.16 1.466 3.662 1.466 1.289 0 2.386-.295 3.292-.883.906-.59 1.815-1.607 2.727-3.052V44.481h1.973v18.468h-1.973zM137.42 44.481v3.212h.08c1.543-2.382 3.575-3.573 6.099-3.573 2.094 0 3.764.67 5.012 2.008 1.248 1.338 1.872 3.191 1.872 5.56V62.95h-1.973V52.43c0-4.255-1.677-6.383-5.032-6.383-2.456 0-4.475 1.318-6.058 3.955V62.95h-1.974V44.48h1.974zM169.501 59.698V47.773c-1.771-1.15-3.569-1.726-5.393-1.726-2.135 0-3.892.706-5.274 2.118-1.383 1.412-2.074 3.215-2.074 5.41 0 2.235.738 4.095 2.214 5.58 1.476 1.486 3.321 2.229 5.536 2.229 1.717 0 3.382-.562 4.991-1.686zm1.994-24.793V62.95h-1.994v-1.446c-1.69 1.205-3.515 1.807-5.474 1.807-2.631 0-4.848-.927-6.653-2.78-1.805-1.854-2.707-4.133-2.707-6.835 0-2.744.889-5.026 2.667-6.846 1.778-1.82 4.008-2.73 6.693-2.73 1.704 0 3.529.495 5.474 1.485v-10.7h1.994zM189.651 62.95v-3.052h-.08c-.859 1.231-1.741 2.108-2.647 2.63-.906.522-2.057.783-3.452.783-1.986 0-3.63-.643-4.932-1.928-1.301-1.284-1.952-3.104-1.952-5.46V44.481h1.973v11.402c0 1.713.469 3.059 1.409 4.035.939.977 2.16 1.465 3.663 1.465 1.288 0 2.385-.294 3.291-.883.906-.589 1.815-1.606 2.727-3.05V44.48h1.973v18.468h-1.973zM198.812 44.481v3.212h.08c1.543-2.382 3.576-3.573 6.099-3.573 2.094 0 3.764.67 5.012 2.008 1.249 1.338 1.872 3.191 1.872 5.56V62.95h-1.973V52.43c0-4.255-1.677-6.383-5.032-6.383-2.456 0-4.475 1.318-6.058 3.955V62.95h-1.973V44.48h1.973zM223.641 55.964c1.355 0 2.52-.485 3.492-1.456.973-.97 1.46-2.13 1.46-3.483 0-1.351-.487-2.505-1.46-3.462-.972-.957-2.15-1.436-3.533-1.436-1.368 0-2.522.469-3.461 1.405-.94.937-1.409 2.075-1.409 3.413 0 1.392.476 2.577 1.429 3.553.953.977 2.113 1.466 3.482 1.466zm.282 14.795c1.919 0 3.445-.328 4.579-.984 1.134-.656 1.701-1.52 1.701-2.59 0-2.168-1.966-3.252-5.898-3.252-4.482 0-6.723 1.137-6.723 3.413 0 2.275 2.114 3.413 6.341 3.413zm8.212-26.278v1.606h-4.206c1.703 1.552 2.556 3.185 2.556 4.898 0 1.54-.332 2.757-.997 3.654-.664.897-1.456 1.548-2.375 1.957-.919.408-2.143.81-3.674 1.204-1.529.395-2.488.766-2.878 1.114-.389.349-.583.75-.583 1.205 0 .535.251.963.754 1.285.503.32 2.067.555 4.69.702 2.624.148 4.392.65 5.304 1.506.913.856 1.37 1.994 1.37 3.413 0 1.673-.733 2.988-2.195 3.944-1.463.957-3.495 1.436-6.099 1.436-2.59 0-4.589-.452-5.999-1.355-1.409-.903-2.113-2.098-2.113-3.584 0-2.409 1.798-3.901 5.395-4.476v-.08c-2-.47-3-1.346-3-2.63 0-1.299 1.235-2.303 3.704-3.011v-.081c-1.624-.482-2.855-1.281-3.694-2.399-.839-1.117-1.257-2.358-1.257-3.724 0-1.94.677-3.523 2.032-4.747 1.356-1.225 3.302-1.837 5.838-1.837h7.427zM246.887 45.686v2.128c-1.879-1.258-3.57-1.888-5.072-1.888-1.114 0-2.054.301-2.818.901-.765.6-1.148 1.341-1.148 2.222 0 .628.232 1.205.698 1.732.465.527 1.747 1.195 3.845 2.003 2.097.808 3.468 1.648 4.113 2.517.643.87.966 1.84.966 2.91 0 1.433-.584 2.641-1.751 3.624-1.168.984-2.61 1.476-4.328 1.476-1.865 0-3.718-.562-5.556-1.686v-1.927c2.188 1.124 4.126 1.686 5.818 1.686 1.14 0 2.076-.301 2.807-.903.732-.602 1.098-1.371 1.098-2.307 0-.642-.239-1.234-.716-1.776-.476-.542-1.765-1.228-3.864-2.059-2.1-.83-3.462-1.65-4.086-2.46-.624-.81-.936-1.71-.936-2.7 0-1.406.58-2.6 1.741-3.584 1.161-.983 2.573-1.475 4.238-1.475 1.516 0 3.166.522 4.951 1.566zM262.305 45.686v2.128c-1.879-1.258-3.569-1.888-5.072-1.888-1.114 0-2.053.301-2.818.901-.765.6-1.148 1.341-1.148 2.222 0 .628.233 1.205.698 1.732.465.527 1.747 1.195 3.845 2.003 2.097.808 3.469 1.648 4.112 2.517.645.87.967 1.84.967 2.91 0 1.433-.584 2.641-1.751 3.624-1.168.984-2.61 1.476-4.328 1.476-1.866 0-3.717-.562-5.555-1.686v-1.927c2.187 1.124 4.126 1.686 5.817 1.686 1.14 0 2.076-.301 2.807-.903.732-.602 1.098-1.371 1.098-2.307 0-.642-.238-1.234-.715-1.776-.478-.542-1.766-1.228-3.865-2.059-2.1-.83-3.461-1.65-4.086-2.46-.624-.81-.936-1.71-.936-2.7 0-1.406.581-2.6 1.742-3.584 1.16-.983 2.573-1.475 4.237-1.475 1.516 0 3.166.522 4.951 1.566zM271.408 38.358v6.123h5.193v1.606h-5.193v10.98c0 1.768.144 2.928.433 3.484.288.555 1.063.833 2.324.833.967 0 2.094-.302 3.382-.904v1.887c-1.302.63-2.576.944-3.824.944-1.221 0-2.242-.349-3.06-1.044-.818-.696-1.227-1.66-1.227-2.89v-13.29h-4.993v-1.606h4.993v-4.396l1.348-1.727h.624zM282.58 44.481V62.95h-1.992V44.48h1.992zm0-9.576v3.373h-1.992v-3.373h1.992zM289.988 47.412V60c1.677.923 3.381 1.385 5.112 1.385 2.214 0 4.006-.696 5.374-2.088 1.369-1.392 2.054-3.219 2.054-5.48 0-2.248-.725-4.105-2.174-5.57-1.45-1.466-3.281-2.199-5.496-2.199-1.583 0-3.206.455-4.87 1.365zm0-2.93v1.043c1.865-.937 3.723-1.405 5.575-1.405 2.63 0 4.811.903 6.542 2.71 1.731 1.806 2.596 4.082 2.596 6.826 0 2.703-.892 4.988-2.677 6.855-1.784 1.866-3.965 2.8-6.541 2.8-1.785 0-3.617-.462-5.495-1.385v10.479h-1.973V44.48h1.973zM310.397 51.447h11.997c-.698-3.6-2.651-5.4-5.858-5.4-1.516 0-2.828.472-3.935 1.415-1.107.944-1.842 2.272-2.204 3.985zm14.332 1.586h-14.594c-.04.321-.06.643-.06.964 0 2.06.738 3.807 2.214 5.239s3.22 2.148 5.233 2.148c2.348 0 4.643-.916 6.885-2.75v2.228c-2.121 1.633-4.496 2.449-7.126 2.449-2.67 0-4.878-.923-6.623-2.77-1.744-1.847-2.616-4.196-2.616-7.046 0-2.703.805-4.942 2.415-6.715 1.611-1.773 3.637-2.66 6.079-2.66 2.295 0 4.234.8 5.817 2.399 1.583 1.6 2.376 3.77 2.376 6.514zM330.914 44.481v3.212h.08c1.543-2.382 3.576-3.573 6.099-3.573 2.094 0 3.765.67 5.012 2.008 1.249 1.338 1.873 3.191 1.873 5.56V62.95h-1.974V52.43c0-4.255-1.677-6.383-5.031-6.383-2.456 0-4.476 1.318-6.059 3.955V62.95h-1.973V44.48h1.973zM362.996 59.698V47.773c-1.771-1.15-3.569-1.726-5.394-1.726-2.134 0-3.892.706-5.274 2.118-1.382 1.412-2.074 3.215-2.074 5.41 0 2.235.738 4.095 2.215 5.58 1.476 1.486 3.321 2.229 5.535 2.229 1.718 0 3.382-.562 4.992-1.686zm1.993-24.793V62.95h-1.993v-1.446c-1.691 1.205-3.515 1.807-5.474 1.807-2.632 0-4.849-.927-6.654-2.78-1.805-1.854-2.706-4.133-2.706-6.835 0-2.744.888-5.026 2.666-6.846 1.778-1.82 4.009-2.73 6.694-2.73 1.703 0 3.529.495 5.474 1.485v-10.7h1.993zM372.356 44.481V62.95h-1.992V44.48h1.992zm0-9.576v3.373h-1.992v-3.373h1.992zM390.772 62.95v-3.052h-.081c-.859 1.231-1.741 2.108-2.647 2.63-.906.522-2.057.783-3.452.783-1.986 0-3.63-.643-4.931-1.928-1.302-1.284-1.953-3.104-1.953-5.46V44.481h1.973v11.402c0 1.713.469 3.059 1.409 4.035.939.977 2.16 1.465 3.663 1.465 1.288 0 2.385-.294 3.291-.883.906-.589 1.815-1.606 2.728-3.05V44.48h1.972v18.468h-1.972zM399.893 44.481v3.252h.08c1.503-2.41 3.469-3.613 5.898-3.613 2.832 0 4.824 1.479 5.979 4.436 1.744-2.957 3.891-4.436 6.44-4.436 1.92 0 3.47.683 4.651 2.047 1.18 1.365 1.771 3.18 1.771 5.44V62.95h-1.973V52.47c0-1.994-.423-3.564-1.268-4.708-.845-1.144-2.033-1.716-3.563-1.716-1.141 0-2.134.341-2.979 1.024-.846.682-1.718 1.78-2.617 3.292V62.95h-1.992V52.43c0-2.047-.44-3.623-1.319-4.727s-2.056-1.656-3.532-1.656c-2.148 0-4.006 1.318-5.576 3.955V62.95h-1.973V44.48h1.973zM85.258 81.042v2.379c-2.432-1.426-4.522-2.14-6.272-2.14-1.684 0-3.09.51-4.218 1.53-1.13 1.02-1.694 2.282-1.694 3.788a4.66 4.66 0 001.002 2.918c.668.866 2.064 1.698 4.189 2.498 2.124.8 3.673 1.466 4.65 1.998.974.534 1.802 1.306 2.484 2.32.681 1.012 1.022 2.324 1.022 3.936 0 2.146-.789 3.957-2.365 5.437-1.576 1.479-3.5 2.218-5.772 2.218-2.324 0-4.716-.812-7.174-2.438v-2.538c2.712 1.985 5.064 2.977 7.054 2.977 1.657 0 3.056-.536 4.199-1.609 1.142-1.072 1.713-2.388 1.713-3.948a5.245 5.245 0 00-1.062-3.207c-.708-.953-2.144-1.844-4.307-2.672-2.164-.829-3.71-1.496-4.639-2.002-.929-.506-1.718-1.229-2.366-2.167-.649-.939-.973-2.148-.973-3.626 0-2.05.788-3.798 2.365-5.243 1.576-1.445 3.474-2.168 5.692-2.168 2.177 0 4.335.587 6.472 1.759zM103.779 89.716v2.179c-1.764-.773-3.361-1.16-4.79-1.16-2.058 0-3.731.714-5.02 2.14-1.29 1.425-1.934 3.277-1.934 5.555 0 2.319.645 4.161 1.934 5.527 1.289 1.366 3.016 2.049 5.18 2.049 1.577 0 3.233-.353 4.971-1.06v2.039c-1.844.626-3.555.939-5.131.939-2.7 0-4.88-.852-6.544-2.558-1.663-1.705-2.494-3.944-2.494-6.716 0-2.89.838-5.252 2.515-7.085 1.677-1.831 3.817-2.748 6.423-2.748 1.429 0 3.059.3 4.89.9zM109.523 79.643v12.732h.079c1.537-2.372 3.561-3.558 6.073-3.558 2.084 0 3.747.666 4.99 1.999 1.242 1.332 1.863 3.164 1.863 5.496v11.252h-1.964V97.091c0-4.236-1.67-6.356-5.009-6.356-2.392 0-4.403 1.313-6.032 3.938v12.891h-1.965v-27.92h1.965zM129.861 79.643h-1.985v27.921h1.985v-27.92zM137.494 96.112h11.944c-.695-3.584-2.639-5.377-5.832-5.377-1.51 0-2.816.47-3.918 1.41-1.102.94-1.833 2.261-2.194 3.967zm14.268 1.58h-14.529c-.04.318-.06.638-.06.958 0 2.052.735 3.791 2.205 5.217 1.469 1.426 3.206 2.139 5.21 2.139 2.337 0 4.622-.913 6.853-2.738v2.218c-2.11 1.626-4.475 2.438-7.094 2.438-2.658 0-4.856-.919-6.593-2.758s-2.605-4.177-2.605-7.015c0-2.691.801-4.92 2.405-6.686 1.603-1.765 3.62-2.648 6.052-2.648 2.285 0 4.215.796 5.792 2.388 1.575 1.592 2.364 3.755 2.364 6.487zM165.769 90.376v2.118c-1.871-1.252-3.554-1.878-5.05-1.878-1.11 0-2.044.299-2.806.897-.761.598-1.143 1.334-1.143 2.212 0 .624.232 1.2.695 1.724.463.524 1.739 1.19 3.828 1.994 2.088.805 3.454 1.64 4.095 2.506.641.867.962 1.833.962 2.899 0 1.425-.581 2.628-1.743 3.607-1.162.979-2.599 1.469-4.309 1.469-1.857 0-3.701-.559-5.531-1.679v-1.918c2.177 1.119 4.108 1.679 5.792 1.679 1.135 0 2.067-.3 2.795-.9.728-.599 1.092-1.364 1.092-2.296 0-.64-.237-1.229-.712-1.768-.474-.539-1.757-1.223-3.847-2.05-2.091-.827-3.447-1.644-4.068-2.45-.621-.806-.932-1.703-.932-2.689 0-1.398.578-2.588 1.733-3.567 1.156-.98 2.562-1.47 4.219-1.47 1.51 0 3.153.52 4.93 1.56zM197.225 89.177l-7.97 18.747h-.94l-5.67-14.93-5.722 14.93h-.885l-7.892-18.748h1.935l6.292 14.991 5.789-14.99h1.069l5.607 14.99 6.437-14.99h1.95zM202.178 89.177v18.387h-1.984V89.177h1.984zm0-9.534v3.358h-1.984v-3.358h1.984zM213.454 100.609c1.35 0 2.508-.483 3.478-1.45.968-.965 1.453-2.121 1.453-3.467s-.485-2.495-1.453-3.447c-.97-.953-2.142-1.43-3.518-1.43-1.363 0-2.512.467-3.447 1.4-.935.932-1.402 2.065-1.402 3.397 0 1.386.474 2.565 1.422 3.538.949.972 2.105 1.459 3.467 1.459zm.281 14.73c1.91 0 3.43-.326 4.559-.98 1.129-.652 1.693-1.512 1.693-2.577 0-2.159-1.957-3.238-5.871-3.238-4.463 0-6.694 1.132-6.694 3.398 0 2.265 2.104 3.397 6.313 3.397zm8.176-26.162v1.599h-4.188c1.696 1.545 2.545 3.171 2.545 4.877 0 1.532-.331 2.744-.992 3.637-.661.893-1.45 1.542-2.364 1.948-.916.407-2.135.807-3.658 1.199-1.523.394-2.478.764-2.866 1.11-.387.347-.581.746-.581 1.199 0 .533.25.96.752 1.28.5.319 2.057.553 4.669.699 2.612.147 4.371.647 5.28 1.499.909.852 1.363 1.985 1.363 3.398 0 1.666-.728 2.974-2.184 3.927-1.456.953-3.48 1.429-6.072 1.429-2.579 0-4.569-.449-5.973-1.349-1.402-.9-2.103-2.089-2.103-3.567 0-2.399 1.79-3.885 5.37-4.458v-.079c-1.991-.467-2.986-1.34-2.986-2.619 0-1.292 1.229-2.292 3.687-2.997v-.081c-1.616-.48-2.842-1.276-3.676-2.388-.836-1.112-1.253-2.349-1.253-3.708 0-1.932.674-3.507 2.024-4.727 1.349-1.22 3.286-1.828 5.812-1.828h7.394zM233.636 97.372h-9.72v1.918h9.72v-1.918zM263.237 79.643v27.921h-2.184v-13.23h-18.678v13.23h-2.164v-27.92h2.164v12.89h18.678v-12.89h2.184zM276.949 106.006c2.071 0 3.801-.723 5.191-2.169 1.389-1.446 2.084-3.261 2.084-5.446 0-2.172-.699-3.99-2.094-5.457-1.396-1.465-3.123-2.199-5.181-2.199-2.084 0-3.824.727-5.22 2.179-1.396 1.453-2.094 3.278-2.094 5.477 0 2.185.698 4 2.094 5.446 1.396 1.446 3.136 2.169 5.22 2.169zm0-17.19c2.673 0 4.9.914 6.684 2.739 1.783 1.826 2.676 4.104 2.676 6.836 0 2.718-.893 4.986-2.676 6.805-1.784 1.819-4.011 2.728-6.684 2.728-2.672 0-4.906-.909-6.703-2.728-1.797-1.819-2.695-4.087-2.695-6.805 0-2.732.898-5.01 2.695-6.836 1.797-1.825 4.031-2.738 6.703-2.738zM292.798 79.643h-1.985v27.921h1.985v-27.92zM308.103 90.376v2.118c-1.871-1.252-3.554-1.878-5.05-1.878-1.109 0-2.044.299-2.806.897-.761.598-1.142 1.334-1.142 2.212 0 .624.231 1.2.694 1.724.463.524 1.74 1.19 3.828 1.994 2.089.805 3.454 1.64 4.095 2.506.641.867.962 1.833.962 2.899 0 1.425-.581 2.628-1.744 3.607-1.162.979-2.598 1.469-4.308 1.469-1.857 0-3.701-.559-5.531-1.679v-1.918c2.177 1.119 4.108 1.679 5.792 1.679 1.135 0 2.067-.3 2.795-.9.728-.599 1.092-1.364 1.092-2.296 0-.64-.237-1.229-.712-1.768-.474-.539-1.757-1.223-3.847-2.05-2.091-.827-3.447-1.644-4.068-2.45-.621-.806-.932-1.703-.932-2.689 0-1.398.578-2.588 1.733-3.567 1.156-.98 2.563-1.47 4.219-1.47 1.509 0 3.153.52 4.93 1.56zM317.166 83.08v6.097h5.17v1.599h-5.17v10.932c0 1.759.143 2.916.431 3.468.287.553 1.059.83 2.314.83.962 0 2.085-.3 3.367-.9v1.879c-1.296.626-2.565.939-3.807.939-1.216 0-2.232-.347-3.047-1.039-.815-.693-1.222-1.652-1.222-2.878V90.776h-4.97v-1.6h4.97V84.8l1.342-1.718h.622zM327.141 96.112h11.944c-.695-3.584-2.639-5.377-5.832-5.377-1.51 0-2.816.47-3.918 1.41-1.102.94-1.834 2.261-2.194 3.967zm14.268 1.58H326.88c-.04.318-.06.638-.06.958 0 2.052.735 3.791 2.204 5.217 1.47 1.426 3.207 2.139 5.211 2.139 2.338 0 4.622-.913 6.854-2.738v2.218c-2.111 1.626-4.476 2.438-7.095 2.438-2.658 0-4.857-.919-6.593-2.758-1.737-1.839-2.605-4.177-2.605-7.015 0-2.691.801-4.92 2.405-6.686 1.603-1.765 3.62-2.648 6.052-2.648 2.285 0 4.215.796 5.792 2.388 1.575 1.592 2.364 3.755 2.364 6.487zM348.524 89.177v18.387h-1.984V89.177h1.984zm0-9.534v3.358h-1.984v-3.358h1.984zM355.858 89.177v3.198h.079c1.537-2.372 3.561-3.558 6.073-3.558 2.084 0 3.747.666 4.99 1.999 1.242 1.332 1.863 3.178 1.863 5.536v11.212h-1.964V97.091c0-4.236-1.67-6.356-5.009-6.356-2.445 0-4.456 1.313-6.032 3.938v12.891h-1.965V89.177h1.965z" fill="#231F20"/></svg>